<svg width="400" height="300" viewBox="0 0 400 300" fill="none" xmlns="http://www.w3.org/2000/svg">
  <defs>
    <linearGradient id="vesta-gradient-2" x1="0%" y1="0%" x2="100%" y2="100%">
      <stop offset="0%" stop-color="#047857"/>
      <stop offset="50%" stop-color="#0d9488"/>
      <stop offset="100%" stop-color="#10b981"/>
    </linearGradient>
    <linearGradient id="vesta-gradient-subtle-2" x1="0%" y1="0%" x2="100%" y2="100%">
      <stop offset="0%" stop-color="#047857" stop-opacity="0.3"/>
      <stop offset="100%" stop-color="#10b981" stop-opacity="0.1"/>
    </linearGradient>
  </defs>

  <!-- Main timeline -->
  <line x1="60" y1="150" x2="340" y2="150" stroke="url(#vesta-gradient-2)" stroke-width="3" stroke-linecap="round"/>

  <!-- Timeline nodes -->
  <circle cx="80" cy="150" r="16" fill="url(#vesta-gradient-subtle-2)" stroke="url(#vesta-gradient-2)" stroke-width="2"/>
  <circle cx="160" cy="150" r="18" fill="url(#vesta-gradient-subtle-2)" stroke="url(#vesta-gradient-2)" stroke-width="2"/>
  <circle cx="240" cy="150" r="20" fill="url(#vesta-gradient-2)" opacity="0.9"/>
  <circle cx="320" cy="150" r="16" fill="url(#vesta-gradient-subtle-2)" stroke="url(#vesta-gradient-2)" stroke-width="2" stroke-dasharray="4 2"/>

  <!-- Calendar element top left -->
  <rect x="55" y="60" width="50" height="45" rx="6" fill="url(#vesta-gradient-subtle-2)" stroke="url(#vesta-gradient-2)" stroke-width="1.5"/>
  <line x1="55" y1="75" x2="105" y2="75" stroke="url(#vesta-gradient-2)" stroke-width="1.5"/>
  <rect x="62" y="82" width="8" height="8" rx="1" fill="url(#vesta-gradient-2)" opacity="0.6"/>
  <rect x="75" y="82" width="8" height="8" rx="1" fill="url(#vesta-gradient-2)" opacity="0.6"/>
  <rect x="88" y="82" width="8" height="8" rx="1" fill="url(#vesta-gradient-2)" opacity="0.6"/>
  <rect x="62" y="93" width="8" height="8" rx="1" fill="url(#vesta-gradient-2)" opacity="0.3"/>
  <rect x="75" y="93" width="8" height="8" rx="1" fill="url(#vesta-gradient-2)"/>
  <rect x="88" y="93" width="8" height="8" rx="1" fill="url(#vesta-gradient-2)" opacity="0.3"/>
  <line x1="80" y1="105" x2="80" y2="134" stroke="url(#vesta-gradient-2)" stroke-width="1.5" stroke-dasharray="3 2"/>

  <!-- Clock element top middle -->
  <circle cx="160" cy="70" r="28" fill="url(#vesta-gradient-subtle-2)" stroke="url(#vesta-gradient-2)" stroke-width="1.5"/>
  <circle cx="160" cy="70" r="3" fill="url(#vesta-gradient-2)"/>
  <line x1="160" y1="70" x2="160" y2="52" stroke="url(#vesta-gradient-2)" stroke-width="2" stroke-linecap="round"/>
  <line x1="160" y1="70" x2="175" y2="75" stroke="url(#vesta-gradient-2)" stroke-width="2" stroke-linecap="round"/>
  <line x1="160" y1="98" x2="160" y2="132" stroke="url(#vesta-gradient-2)" stroke-width="1.5" stroke-dasharray="3 2"/>

  <!-- Bell/reminder element top right -->
  <path d="M240 55 L240 40 M230 75 C230 65 235 55 240 55 C245 55 250 65 250 75 L230 75 M233 75 L233 80 Q240 85 247 80 L247 75" stroke="url(#vesta-gradient-2)" stroke-width="2" fill="none" stroke-linecap="round" stroke-linejoin="round"/>
  <circle cx="240" cy="40" r="3" fill="url(#vesta-gradient-2)"/>
  <line x1="240" y1="85" x2="240" y2="130" stroke="url(#vesta-gradient-2)" stroke-width="1.5" stroke-dasharray="3 2"/>

  <!-- Memory cards bottom -->
  <rect x="135" y="190" width="50" height="35" rx="4" fill="url(#vesta-gradient-subtle-2)" stroke="url(#vesta-gradient-2)" stroke-width="1.5"/>
  <line x1="145" y1="200" x2="175" y2="200" stroke="url(#vesta-gradient-2)" stroke-width="1" opacity="0.6"/>
  <line x1="145" y1="208" x2="170" y2="208" stroke="url(#vesta-gradient-2)" stroke-width="1" opacity="0.4"/>
  <line x1="145" y1="216" x2="165" y2="216" stroke="url(#vesta-gradient-2)" stroke-width="1" opacity="0.4"/>
  <line x1="160" y1="168" x2="160" y2="190" stroke="url(#vesta-gradient-2)" stroke-width="1.5" stroke-dasharray="3 2"/>

  <rect x="215" y="200" width="50" height="35" rx="4" fill="url(#vesta-gradient-subtle-2)" stroke="url(#vesta-gradient-2)" stroke-width="1.5"/>
  <line x1="225" y1="210" x2="255" y2="210" stroke="url(#vesta-gradient-2)" stroke-width="1" opacity="0.6"/>
  <line x1="225" y1="218" x2="250" y2="218" stroke="url(#vesta-gradient-2)" stroke-width="1" opacity="0.4"/>
  <line x1="225" y1="226" x2="245" y2="226" stroke="url(#vesta-gradient-2)" stroke-width="1" opacity="0.4"/>
  <line x1="240" y1="170" x2="240" y2="200" stroke="url(#vesta-gradient-2)" stroke-width="1.5" stroke-dasharray="3 2"/>

  <!-- Future indicator (arrow) -->
  <path d="M340 150 L360 150 M352 142 L360 150 L352 158" stroke="url(#vesta-gradient-2)" stroke-width="2" stroke-linecap="round" stroke-linejoin="round" opacity="0.5"/>

  <!-- Inner highlights on current node -->
  <circle cx="240" cy="150" r="8" fill="white" opacity="0.3"/>
</svg>
