<svg width="1600" height="1200" viewBox="0 0 1600 1200" fill="none" xmlns="http://www.w3.org/2000/svg">
  <rect width="1600" height="1200" fill="#050B16"/>
  <g opacity="0.92">
    <ellipse cx="314" cy="254" rx="328" ry="236" fill="url(#paint0_radial)"/>
    <ellipse cx="1268" cy="228" rx="308" ry="228" fill="url(#paint1_radial)"/>
    <ellipse cx="1070" cy="798" rx="420" ry="280" fill="url(#paint2_radial)"/>
    <ellipse cx="424" cy="892" rx="356" ry="220" fill="url(#paint3_radial)"/>
  </g>
  <g opacity="0.3">
    <path d="M120 988C358 782 548 706 812 654C1066 604 1280 500 1488 218" stroke="url(#paint4_linear)" stroke-width="2"/>
    <path d="M-24 694C280 610 592 586 808 418C1032 244 1248 126 1618 120" stroke="url(#paint5_linear)" stroke-width="2"/>
    <path d="M210 1164C472 920 790 968 988 786C1192 598 1348 588 1554 388" stroke="url(#paint6_linear)" stroke-width="1.5"/>
  </g>
  <g opacity="0.18">
    <circle cx="1118" cy="314" r="174" stroke="#6EE7F9"/>
    <circle cx="1118" cy="314" r="254" stroke="#3B82F6"/>
    <circle cx="1118" cy="314" r="334" stroke="#FBBF24"/>
  </g>
  <defs>
    <radialGradient id="paint0_radial" cx="0" cy="0" r="1" gradientUnits="userSpaceOnUse" gradientTransform="translate(314 254) rotate(90) scale(236 328)">
      <stop stop-color="#3B82F6" stop-opacity="0.52"/>
      <stop offset="1" stop-color="#3B82F6" stop-opacity="0"/>
    </radialGradient>
    <radialGradient id="paint1_radial" cx="0" cy="0" r="1" gradientUnits="userSpaceOnUse" gradientTransform="translate(1268 228) rotate(90) scale(228 308)">
      <stop stop-color="#22D3EE" stop-opacity="0.32"/>
      <stop offset="1" stop-color="#22D3EE" stop-opacity="0"/>
    </radialGradient>
    <radialGradient id="paint2_radial" cx="0" cy="0" r="1" gradientUnits="userSpaceOnUse" gradientTransform="translate(1070 798) rotate(90) scale(280 420)">
      <stop stop-color="#1D4ED8" stop-opacity="0.42"/>
      <stop offset="1" stop-color="#1D4ED8" stop-opacity="0"/>
    </radialGradient>
    <radialGradient id="paint3_radial" cx="0" cy="0" r="1" gradientUnits="userSpaceOnUse" gradientTransform="translate(424 892) rotate(90) scale(220 356)">
      <stop stop-color="#FBBF24" stop-opacity="0.22"/>
      <stop offset="1" stop-color="#FBBF24" stop-opacity="0"/>
    </radialGradient>
    <linearGradient id="paint4_linear" x1="120" y1="988" x2="1488" y2="218" gradientUnits="userSpaceOnUse">
      <stop stop-color="#3B82F6" stop-opacity="0"/>
      <stop offset="0.4" stop-color="#60A5FA"/>
      <stop offset="1" stop-color="#22D3EE" stop-opacity="0"/>
    </linearGradient>
    <linearGradient id="paint5_linear" x1="-24" y1="694" x2="1618" y2="120" gradientUnits="userSpaceOnUse">
      <stop stop-color="#3B82F6" stop-opacity="0"/>
      <stop offset="0.45" stop-color="#1D4ED8"/>
      <stop offset="1" stop-color="#FBBF24" stop-opacity="0"/>
    </linearGradient>
    <linearGradient id="paint6_linear" x1="210" y1="1164" x2="1554" y2="388" gradientUnits="userSpaceOnUse">
      <stop stop-color="#FBBF24" stop-opacity="0"/>
      <stop offset="0.5" stop-color="#FDE68A"/>
      <stop offset="1" stop-color="#3B82F6" stop-opacity="0"/>
    </linearGradient>
  </defs>
</svg>
